<?xml version="1.0" encoding="iso-8859-1"?>
<!-- Generator: Adobe Illustrator 23.0.2, SVG Export Plug-In . SVG Version: 6.00 Build 0)  -->
<svg version="1.1" id="Layer_1" xmlns="http://www.w3.org/2000/svg" xmlns:xlink="http://www.w3.org/1999/xlink" x="0px" y="0px"
	 viewBox="0 0 1000 1000" style="enable-background:new 0 0 1000 1000;" xml:space="preserve">
<rect id="XMLID_11_" style="fill:#EDEDED;" width="1000" height="1000"/>
<g id="XMLID_192_">
	
		<path id="XMLID_177_" style="fill:none;stroke:#00233A;stroke-width:8;stroke-linecap:round;stroke-linejoin:round;stroke-miterlimit:10;" d="
		M756.459,605.068L756.459,605.068c-33.93,0.234-59.297-14.744-80.39-35.604c-4.076-4.201-7.937-9.714-11.506-15.847
		c-18.102-31.107-23.037-67.158-14.747-101.517c13.613-56.424,43.323-157.482,94.924-231.385c5.43-7.777,18.008-7.777,23.437,0
		c51.601,73.903,81.311,174.961,94.924,231.385c8.29,34.359,3.355,70.41-14.747,101.518c-3.569,6.133-7.43,11.646-11.505,15.847
		C815.755,590.323,790.389,605.302,756.459,605.068z"/>
	
		<line id="XMLID_27_" style="fill:none;stroke:#00233A;stroke-width:8;stroke-linecap:round;stroke-linejoin:round;stroke-miterlimit:10;" x1="756.458" y1="532.922" x2="809.881" y2="494.417"/>
	
		<line id="XMLID_16_" style="fill:none;stroke:#00233A;stroke-width:8;stroke-linecap:round;stroke-linejoin:round;stroke-miterlimit:10;" x1="756.458" y1="479.604" x2="708.949" y2="442.785"/>
	
		<line id="XMLID_1_" style="fill:none;stroke:#00233A;stroke-width:8;stroke-linecap:round;stroke-linejoin:round;stroke-miterlimit:10;" x1="756.458" y1="747.501" x2="756.458" y2="389.459"/>
</g>
<g id="XMLID_195_">
	
		<path id="XMLID_304_" style="fill:none;stroke:#00233A;stroke-width:8;stroke-linecap:round;stroke-linejoin:round;stroke-miterlimit:10;" d="
		M259.681,646.046L259.681,646.046c24.168,0.184,42.237-11.584,57.262-27.972c2.903-3.301,5.653-7.632,8.195-12.451
		c12.894-24.44,16.409-52.764,10.504-79.758c-9.696-44.33-30.859-123.727-67.614-181.79c-3.868-6.11-12.827-6.11-16.694,0
		c-36.755,58.063-57.917,137.46-67.614,181.79c-5.905,26.995-2.39,55.319,10.504,79.758c2.542,4.818,5.292,9.15,8.195,12.45
		C217.444,634.462,235.513,646.23,259.681,646.046z"/>
	
		<line id="XMLID_301_" style="fill:none;stroke:#00233A;stroke-width:8;stroke-linecap:round;stroke-linejoin:round;stroke-miterlimit:10;" x1="259.681" y1="594.657" x2="221.628" y2="567.23"/>
	
		<line id="XMLID_300_" style="fill:none;stroke:#00233A;stroke-width:8;stroke-linecap:round;stroke-linejoin:round;stroke-miterlimit:10;" x1="259.681" y1="556.679" x2="293.522" y2="530.452"/>
	
		<path id="XMLID_3_" style="fill:none;stroke:#00233A;stroke-width:8;stroke-linecap:round;stroke-linejoin:round;stroke-miterlimit:10;" d="
		M313.039,622.149v15.074c0,18.829,15.264,34.093,34.093,34.093h51.191c18.829,0,34.093-15.264,34.093-34.093V535.22
		c0-18.829-15.264-34.093-34.093-34.093h-51.191c-5.891,0-11.433,1.494-16.268,4.124"/>
	
		<line id="XMLID_268_" style="fill:none;stroke:#00233A;stroke-width:8;stroke-linecap:round;stroke-linejoin:round;stroke-miterlimit:10;" x1="372.727" y1="646.048" x2="347.405" y2="622.698"/>
	
		<line id="XMLID_217_" style="fill:none;stroke:#00233A;stroke-width:8;stroke-linecap:round;stroke-linejoin:round;stroke-miterlimit:10;" x1="372.727" y1="607.324" x2="400.763" y2="594.657"/>
	
		<line id="XMLID_204_" style="fill:none;stroke:#00233A;stroke-width:8;stroke-linecap:round;stroke-linejoin:round;stroke-miterlimit:10;" x1="259.681" y1="747.501" x2="259.681" y2="492.469"/>
	
		<line id="XMLID_203_" style="fill:none;stroke:#00233A;stroke-width:8;stroke-linecap:round;stroke-linejoin:round;stroke-miterlimit:10;" x1="372.727" y1="567.531" x2="372.727" y2="747.501"/>
	
		<polyline id="XMLID_2_" style="fill:none;stroke:#00233A;stroke-width:8;stroke-linecap:round;stroke-linejoin:round;stroke-miterlimit:10;" points="
		248.975,219.444 270.673,224.327 276.602,204.682 	"/>
	
		<polyline id="XMLID_26_" style="fill:none;stroke:#00233A;stroke-width:8;stroke-linecap:round;stroke-linejoin:round;stroke-miterlimit:10;" points="
		346.509,180.972 356.252,193.4 368.334,185.257 	"/>
	
		<polyline id="XMLID_299_" style="fill:none;stroke:#00233A;stroke-width:8;stroke-linecap:round;stroke-linejoin:round;stroke-miterlimit:10;" points="
		439.132,186.829 454.045,192.021 459.81,178.64 	"/>
</g>
<g>
	<g id="XMLID_191_">
		<path style="fill:#9BA589;" d="M656.024,327.779c-2.408,0-4.816,0-7.225,0c-4.784,0-9.334-3.935-9.925-8.808
			c-1.745-16.649-1.745-33.435,0-50.084c0.591-4.873,5.141-8.808,9.925-8.808c2.408,0,4.817,0,7.225,0
			c4.784,0,9.334,3.935,9.925,8.808c1.745,16.649,1.745,33.435,0,50.084C665.358,323.844,660.808,327.779,656.024,327.779z"/>
	</g>
	<g id="XMLID_145_">
		<path style="fill:none;stroke:#3E3442;stroke-width:10;stroke-linecap:round;stroke-linejoin:round;stroke-miterlimit:10;" d="
			M656.024,327.779c-2.408,0-4.816,0-7.225,0c-4.784,0-9.334-3.935-9.925-8.808c-1.745-16.649-1.745-33.435,0-50.084
			c0.591-4.873,5.141-8.808,9.925-8.808c2.408,0,4.817,0,7.225,0c4.784,0,9.334,3.935,9.925,8.808
			c1.745,16.649,1.745,33.435,0,50.084C665.358,323.844,660.808,327.779,656.024,327.779z"/>
	</g>
	<g id="XMLID_194_">
		<path style="fill:#9BA589;" d="M347.419,327.779c-2.408,0-4.817,0-7.225,0c-4.784,0-9.334-3.935-9.925-8.808
			c-1.745-16.649-1.745-33.435,0-50.084c0.591-4.873,5.14-8.808,9.925-8.808c2.408,0,4.817,0,7.225,0
			c4.784,0,9.334,3.935,9.925,8.808c1.745,16.649,1.745,33.435,0,50.084C356.753,323.844,352.204,327.779,347.419,327.779z"/>
	</g>
	<g id="XMLID_187_">
		<path style="fill:none;stroke:#3E3442;stroke-width:10;stroke-linecap:round;stroke-linejoin:round;stroke-miterlimit:10;" d="
			M347.419,327.779c-2.408,0-4.817,0-7.225,0c-4.784,0-9.334-3.935-9.925-8.808c-1.745-16.649-1.745-33.435,0-50.084
			c0.591-4.873,5.14-8.808,9.925-8.808c2.408,0,4.817,0,7.225,0c4.784,0,9.334,3.935,9.925,8.808
			c1.745,16.649,1.745,33.435,0,50.084C356.753,323.844,352.204,327.779,347.419,327.779z"/>
	</g>
	<g id="XMLID_9_">
		<g>
			
				<path id="XMLID_206_" style="fill:none;stroke:#3E3442;stroke-width:10;stroke-linecap:round;stroke-linejoin:round;stroke-miterlimit:10;" d="
				M359.47,689.866l-23.775-8.532c-34.287-12.305-55.633-54.385-49.614-97.805l8.279-59.715
				c2.668-19.246,16.192-33.319,32.021-33.319h33.089V689.866z"/>
			
				<path id="XMLID_200_" style="fill:none;stroke:#3E3442;stroke-width:10;stroke-linecap:round;stroke-linejoin:round;stroke-miterlimit:10;" d="
				M345.597,583.057c10.258-4.474,18.103-8.457,24.111-11.939v-93.251h-43.327c-20.881,0-38.592,18.429-42.113,43.819l-8.279,59.715
				c-0.562,4.056-0.896,8.099-1.051,12.117C290.422,595.616,316.191,595.883,345.597,583.057z"/>
		</g>
	</g>
	
		<path id="XMLID_61_" style="fill:none;stroke:#3E3442;stroke-width:10;stroke-linecap:round;stroke-linejoin:round;stroke-miterlimit:10;" d="
		M359.47,689.866l-23.775-8.532c-34.287-12.305-55.633-54.385-49.614-97.805l8.279-59.715c2.668-19.246,16.192-33.319,32.021-33.319
		h33.089V689.866z"/>
	<path id="XMLID_22_" style="fill:#F26161;" d="M359.47,689.866l-23.775-8.532c-34.287-12.305-55.633-54.385-49.614-97.805
		l8.279-59.715c2.668-19.246,16.192-33.319,32.021-33.319h33.089V689.866z"/>
	<path id="XMLID_220_" style="opacity:0.3;fill:#994A4A;" d="M294.36,527.815l-8.279,59.715c-0.882,6.365-1.161,12.698-0.913,18.917
		c2.064,0.096,4.136,0.161,6.217,0.161c0.001,0,0,0,0,0c19.505,0,38.823-4.111,57.409-12.218c3.762-1.641,7.321-3.27,10.674-4.881
		v-95.012H326.38C310.552,494.496,297.028,508.568,294.36,527.815z"/>
	
		<path id="XMLID_66_" style="fill:none;stroke:#3E3442;stroke-width:10;stroke-linecap:round;stroke-linejoin:round;stroke-miterlimit:10;" d="
		M359.47,689.866l-23.775-8.532c-34.287-12.305-55.633-54.385-49.614-97.805l8.279-59.715c2.668-19.246,16.192-33.319,32.021-33.319
		h33.089V689.866z"/>
	<path id="XMLID_23_" style="fill:#604957;" d="M345.597,583.057c10.258-4.474,18.103-8.457,24.111-11.939v-93.251h-43.327
		c-20.881,0-38.592,18.429-42.113,43.819l-8.279,59.715c-0.562,4.056-0.896,8.099-1.051,12.117
		C290.422,595.616,316.191,595.883,345.597,583.057z"/>
	<path id="XMLID_207_" style="opacity:0.26;fill:#725865;" d="M282.4,586.975l8.279-59.715c3.52-25.391,21.231-43.819,42.113-43.819
		h36.917v-5.574h-43.327c-20.881,0-38.592,18.429-42.113,43.819l-8.279,59.715c-0.562,4.056-0.896,8.099-1.051,12.117
		c2.055,0.279,4.295,0.523,6.696,0.711C281.818,591.816,282.064,589.398,282.4,586.975z"/>
	
		<path id="XMLID_56_" style="fill:none;stroke:#3E3442;stroke-width:10;stroke-linecap:round;stroke-linejoin:round;stroke-miterlimit:10;" d="
		M345.597,583.057c10.258-4.474,18.103-8.457,24.111-11.939v-93.251h-43.327c-20.881,0-38.592,18.429-42.113,43.819l-8.279,59.715
		c-0.562,4.056-0.896,8.099-1.051,12.117C290.422,595.616,316.191,595.883,345.597,583.057z"/>
	
		<path id="XMLID_81_" style="fill:none;stroke:#3E3442;stroke-width:3;stroke-linecap:round;stroke-linejoin:round;stroke-miterlimit:10;stroke-dasharray:5,7;" d="
		M291.386,584.607c-1.913,0-3.819-0.047-5.711-0.14c0.069-0.569,0.143-1.135,0.22-1.694l8.279-59.715
		c2.828-20.392,16.373-35.192,32.208-35.192h33.327v77.365c-5.242,2.792-11.309,5.693-18.108,8.659
		C325.296,581.002,308.4,584.607,291.386,584.607C291.385,584.607,291.387,584.607,291.386,584.607z"/>
	<g id="XMLID_53_">
		<g>
			
				<path id="XMLID_186_" style="fill:none;stroke:#3E3442;stroke-width:10;stroke-linecap:round;stroke-linejoin:round;stroke-miterlimit:10;" d="
				M638.424,689.866l23.775-8.532c34.287-12.305,55.633-54.385,49.614-97.805l-8.279-59.715
				c-2.668-19.246-16.192-33.319-32.021-33.319h-33.089V689.866z"/>
			
				<path id="XMLID_185_" style="fill:none;stroke:#3E3442;stroke-width:10;stroke-linecap:round;stroke-linejoin:round;stroke-miterlimit:10;" d="
				M652.297,583.057c-10.258-4.474-18.103-8.457-24.111-11.939v-93.251h43.327c20.881,0,38.592,18.429,42.113,43.819l8.279,59.715
				c0.562,4.056,0.896,8.099,1.051,12.117C707.472,595.616,681.703,595.883,652.297,583.057z"/>
		</g>
	</g>
	
		<path id="XMLID_49_" style="fill:none;stroke:#3E3442;stroke-width:10;stroke-linecap:round;stroke-linejoin:round;stroke-miterlimit:10;" d="
		M638.424,689.866l23.775-8.532c34.287-12.305,55.633-54.385,49.614-97.805l-8.279-59.715
		c-2.668-19.246-16.192-33.319-32.021-33.319h-33.089V689.866z"/>
	<path id="XMLID_32_" style="fill:#F26161;" d="M638.424,689.866l23.775-8.532c34.287-12.305,55.633-54.385,49.614-97.805
		l-8.279-59.715c-2.668-19.246-16.192-33.319-32.021-33.319h-33.089V689.866z"/>
	<path id="XMLID_221_" style="opacity:0.3;fill:#994A4A;" d="M711.813,587.53l-8.279-59.715
		c-2.668-19.246-16.192-33.319-32.021-33.319h-33.089v95.012c3.353,1.611,6.912,3.24,10.674,4.881
		c18.587,8.107,37.902,12.218,57.409,12.218c2.081,0,4.153-0.065,6.217-0.161C712.974,600.228,712.695,593.895,711.813,587.53z"/>
	
		<path id="XMLID_31_" style="fill:none;stroke:#3E3442;stroke-width:10;stroke-linecap:round;stroke-linejoin:round;stroke-miterlimit:10;" d="
		M638.424,689.866l23.775-8.532c34.287-12.305,55.633-54.385,49.614-97.805l-8.279-59.715
		c-2.668-19.246-16.192-33.319-32.021-33.319h-33.089V689.866z"/>
	<path id="XMLID_14_" style="fill:#604957;" d="M652.297,583.057c-10.258-4.474-18.103-8.457-24.111-11.939v-93.251h43.327
		c20.881,0,38.592,18.429,42.113,43.819l8.279,59.715c0.562,4.056,0.896,8.099,1.051,12.117
		C707.472,595.616,681.703,595.883,652.297,583.057z"/>
	<path id="XMLID_224_" style="opacity:0.26;fill:#725865;" d="M664.513,483.289c20.881,0,38.592,18.112,42.113,43.067l8.279,58.689
		c0.388,2.748,0.66,5.49,0.846,8.222c2.594-0.189,5.006-0.443,7.204-0.736c-0.155-3.949-0.488-7.922-1.051-11.909l-8.279-58.689
		c-3.52-24.954-21.231-43.067-42.113-43.067h-43.327v4.423H664.513z"/>
	
		<path id="XMLID_201_" style="fill:none;stroke:#3E3442;stroke-width:3;stroke-linecap:round;stroke-linejoin:round;stroke-miterlimit:10;stroke-dasharray:5,7;" d="
		M706.508,584.607c-17.016,0-33.909-3.605-50.213-10.717c-6.801-2.966-12.867-5.867-18.108-8.659v-77.365h33.326
		c15.835,0,29.381,14.801,32.208,35.193l8.278,59.714c0.077,0.56,0.151,1.125,0.221,1.694
		C710.327,584.56,708.421,584.607,706.508,584.607z"/>
	
		<path id="XMLID_13_" style="fill:none;stroke:#3E3442;stroke-width:10;stroke-linecap:round;stroke-linejoin:round;stroke-miterlimit:10;" d="
		M652.297,583.057c-10.258-4.474-18.103-8.457-24.111-11.939v-93.251h43.327c20.881,0,38.592,18.429,42.113,43.819l8.279,59.715
		c0.562,4.056,0.896,8.099,1.051,12.117C707.472,595.616,681.703,595.883,652.297,583.057z"/>
	<path id="XMLID_17_" style="fill:#9BA589;" d="M629.549,341.677c-87.67,0-175.339,0-263.009,0
		c-26.768,0.189-28.383-19.209-28.108-46.076v0c-0.275-26.866,1.34-46.265,28.108-46.076c87.67,0,175.339,0,263.009,0
		c26.769-0.189,28.383,19.209,28.108,46.076c0,0,0,0,0,0C657.932,322.468,656.318,341.866,629.549,341.677z"/>
	<path id="XMLID_303_" style="opacity:0.25;fill:#9BA589;" d="M657.656,295.601c0.021-2.097,0.029-4.143,0.016-6.144
		c-0.15,23.621-3.448,40.097-28.124,39.923c-87.67,0-175.339,0-263.009,0c-24.678,0.174-27.974-16.306-28.124-39.932
		c-0.013,2.004-0.005,4.052,0.016,6.153v0c-0.275,26.867,1.34,46.265,28.108,46.076c87.67,0,175.339,0,263.009,0
		C656.318,341.866,657.932,322.468,657.656,295.601C657.657,295.601,657.657,295.601,657.656,295.601z"/>
	<path id="XMLID_302_" style="opacity:0.31;fill:#9BA589;" d="M338.432,295.601c-0.021,2.103-0.029,4.154-0.016,6.159
		c0.151-23.613,3.454-40.081,28.124-39.908c87.67,0,175.339,0,263.009,0c24.674-0.174,27.973,16.299,28.124,39.917
		c0.013-2.008,0.006-4.063-0.016-6.169c0,0,0,0,0,0c0.275-26.867-1.339-46.265-28.108-46.076c-87.67,0-175.339,0-263.009,0
		C339.771,249.336,338.157,268.735,338.432,295.601L338.432,295.601z"/>
	
		<path id="XMLID_4_" style="fill:none;stroke:#3E3442;stroke-width:10;stroke-linecap:round;stroke-linejoin:round;stroke-miterlimit:10;" d="
		M629.549,341.677c-87.67,0-175.339,0-263.009,0c-26.768,0.189-28.383-19.209-28.108-46.076v0
		c-0.275-26.866,1.34-46.265,28.108-46.076c87.67,0,175.339,0,263.009,0c26.769-0.189,28.383,19.209,28.108,46.076c0,0,0,0,0,0
		C657.932,322.468,656.318,341.866,629.549,341.677z"/>
	
		<line id="XMLID_64_" style="fill:none;stroke:#3E3442;stroke-width:14;stroke-linecap:round;stroke-linejoin:round;stroke-miterlimit:10;" x1="584.935" y1="246.116" x2="584.935" y2="313.866"/>
	
		<line id="XMLID_65_" style="fill:none;stroke:#3E3442;stroke-width:14;stroke-linecap:round;stroke-linejoin:round;stroke-miterlimit:10;" x1="414.659" y1="246.116" x2="414.659" y2="313.866"/>
	<path id="XMLID_15_" style="fill:#F26161;" d="M658.341,440.784c-2.202-11.628-5.398-22.885-9.44-33.668
		c-23.927-63.836-83.501-105.249-149.072-105.249h-0.063c-65.571,0-125.145,41.413-149.072,105.249
		c-4.042,10.783-7.238,22.04-9.44,33.668c-11.403,71.624-15.496,143.574-10.286,214.94c4.653,51.407,48.552,95.167,88.018,95.16
		c53.874,0,107.748,0,161.623,0c39.467,0.007,83.365-43.754,88.018-95.16C673.837,584.357,669.743,512.408,658.341,440.784z"/>
	<path id="XMLID_242_" style="opacity:0.3;fill:#994A4A;" d="M668.627,643.523c-4.653,50.357-48.552,93.225-88.018,93.218
		c-53.874,0-107.748,0-161.623,0c-39.466,0.007-83.366-42.86-88.018-93.218c-1.28-17.172-1.991-34.379-2.178-51.606
		c-0.217,22.957,0.474,45.884,2.178,68.749c4.653,50.358,48.552,93.225,88.018,93.218c53.874,0,107.748,0,161.623,0
		c39.467,0.007,83.365-42.86,88.018-93.218c1.704-22.865,2.395-45.792,2.178-68.749
		C670.618,609.145,669.907,626.352,668.627,643.523z"/>
	<path id="XMLID_44_" style="opacity:0.39;fill:#F26161;" d="M658.341,440.784c-2.202-11.628-5.398-22.885-9.44-33.668
		c-23.927-63.836-83.501-105.249-149.072-105.249h-0.063c-65.571,0-125.145,41.413-149.072,105.249
		c-4.042,10.783-7.238,22.04-9.44,33.668c-11.403,71.624-15.496,143.574-10.286,214.94c2.403,26.546,15.271,51.052,32.59,68.546
		c-13.095-16.334-22.461-37.265-24.431-59.685c-4.958-69.957-1.062-140.486,9.789-210.695c2.096-11.398,5.137-22.433,8.984-33.003
		c22.771-62.576,79.466-103.171,141.868-103.171h0.06c62.402,0,119.097,40.595,141.868,103.171
		c3.847,10.571,6.888,21.605,8.984,33.003c10.852,70.21,14.747,140.739,9.789,210.695c-1.97,22.419-11.337,43.351-24.432,59.685
		c17.319-17.494,30.188-42.001,32.591-68.547C673.837,584.357,669.743,512.408,658.341,440.784z"/>
	<path id="XMLID_118_" style="fill:#EAE6E5;" d="M444.657,444.965c-11.543,0-20.901,9.358-20.901,20.901
		c0,11.543,9.358,20.901,20.901,20.901c11.543,0,20.901-9.358,20.901-20.901C465.558,454.323,456.2,444.965,444.657,444.965z
		 M444.657,477.796c-6.589,0-11.93-5.341-11.93-11.93c0-6.589,5.341-11.93,11.93-11.93s11.93,5.341,11.93,11.93
		C456.587,472.455,451.245,477.796,444.657,477.796z"/>
	
		<path id="XMLID_126_" style="fill:none;stroke:#3E3442;stroke-width:2;stroke-linecap:round;stroke-linejoin:round;stroke-miterlimit:10;" d="
		M444.657,444.965c-11.543,0-20.901,9.358-20.901,20.901c0,11.543,9.358,20.901,20.901,20.901c11.543,0,20.901-9.358,20.901-20.901
		C465.558,454.323,456.2,444.965,444.657,444.965z M444.657,477.796c-6.589,0-11.93-5.341-11.93-11.93
		c0-6.589,5.341-11.93,11.93-11.93s11.93,5.341,11.93,11.93C456.587,472.455,451.245,477.796,444.657,477.796z"/>
	<path id="XMLID_158_" style="fill:#EAE6E5;" d="M565.99,444.965c-11.543,0-20.901,9.358-20.901,20.901
		c0,11.543,9.358,20.901,20.901,20.901c11.543,0,20.901-9.358,20.901-20.901C586.891,454.323,577.534,444.965,565.99,444.965z
		 M565.99,477.796c-6.589,0-11.93-5.341-11.93-11.93c0-6.589,5.341-11.93,11.93-11.93s11.93,5.341,11.93,11.93
		C577.92,472.455,572.579,477.796,565.99,477.796z"/>
	<path id="XMLID_275_" style="opacity:0.3;fill:#994A4A;" d="M656.266,438.011c0.125-0.107,0.238-0.226,0.361-0.335
		c-2.037-8.767-4.631-17.303-7.726-25.561c-23.927-63.836-83.501-105.249-149.072-105.249h-0.063
		c-65.571,0-125.145,41.413-149.072,105.249c-3.095,8.257-5.689,16.794-7.726,25.561c0.123,0.109,0.236,0.228,0.361,0.335
		c44.378,37.984,106.931,44.855,156.469,44.855C549.335,482.866,611.888,475.995,656.266,438.011z"/>
	
		<path id="XMLID_116_" style="opacity:0.3;fill:#994A4A;stroke:#994A4A;stroke-width:10;stroke-linecap:round;stroke-linejoin:round;stroke-miterlimit:10;" d="
		M594.23,707.949H412.508c-12.021,0-21.766-9.745-21.766-21.766v-80.962c0-12.021,9.745-21.766,21.766-21.766H594.23
		c12.021,0,21.766,9.745,21.766,21.766v80.962C615.996,698.204,606.251,707.949,594.23,707.949z"/>
	
		<path id="XMLID_121_" style="fill:none;stroke:#3E3442;stroke-width:2;stroke-linecap:round;stroke-linejoin:round;stroke-miterlimit:10;" d="
		M565.99,444.965c-11.543,0-20.901,9.358-20.901,20.901c0,11.543,9.358,20.901,20.901,20.901c11.543,0,20.901-9.358,20.901-20.901
		C586.891,454.323,577.534,444.965,565.99,444.965z M565.99,477.796c-6.589,0-11.93-5.341-11.93-11.93
		c0-6.589,5.341-11.93,11.93-11.93s11.93,5.341,11.93,11.93C577.92,472.455,572.579,477.796,565.99,477.796z"/>
	<path id="XMLID_25_" style="fill:#725865;" d="M594.23,697.949H412.508c-12.021,0-21.766-9.745-21.766-21.766v-80.962
		c0-12.021,9.745-21.766,21.766-21.766H594.23c12.021,0,21.766,9.745,21.766,21.766v80.962
		C615.996,688.204,606.251,697.949,594.23,697.949z"/>
	
		<path id="XMLID_99_" style="opacity:0.4;fill:#3E3442;stroke:#3E3442;stroke-width:6;stroke-linecap:round;stroke-linejoin:round;stroke-miterlimit:10;" d="
		M510.097,643.542l-5.996,6.155c-2.291,2.352-6.316,2.352-8.608,0l-5.996-6.155c-0.451-0.463-0.701-1.062-0.701-1.682v-75.204
		c0-1.397,1.24-2.53,2.77-2.53h16.461c1.53,0,2.77,1.133,2.77,2.53v75.204C510.797,642.481,510.548,643.079,510.097,643.542z"/>
	
		<path id="XMLID_10_" style="fill:none;stroke:#3E3442;stroke-width:10;stroke-linecap:round;stroke-linejoin:round;stroke-miterlimit:10;" d="
		M594.23,697.949H412.508c-12.021,0-21.766-9.745-21.766-21.766v-80.962c0-12.021,9.745-21.766,21.766-21.766H594.23
		c12.021,0,21.766,9.745,21.766,21.766v80.962C615.996,688.204,606.251,697.949,594.23,697.949z"/>
	<g id="XMLID_21_">
		
			<path style="fill:none;stroke:#3E3442;stroke-width:3;stroke-linecap:round;stroke-linejoin:round;stroke-dasharray:4.9889,6.9845;" d="
			M412.508,685.949c-5.385,0-9.766-4.381-9.766-9.766v-80.963c0-5.385,4.381-9.766,9.766-9.766H594.23
			c5.385,0,9.766,4.381,9.766,9.766v80.963c0,5.385-4.381,9.766-9.766,9.766H412.508z"/>
	</g>
	
		<path id="XMLID_18_" style="fill:none;stroke:#3E3442;stroke-width:10;stroke-linecap:round;stroke-linejoin:round;stroke-miterlimit:10;" d="
		M658.341,440.784c-2.202-11.628-5.398-22.885-9.44-33.668c-23.927-63.836-83.501-105.249-149.072-105.249h-0.063
		c-65.571,0-125.145,41.413-149.072,105.249c-4.042,10.783-7.238,22.04-9.44,33.668c-11.403,71.624-15.496,143.574-10.286,214.94
		c4.653,51.407,48.552,95.167,88.018,95.16c53.874,0,107.748,0,161.623,0c39.467,0.007,83.365-43.754,88.018-95.16
		C673.837,584.357,669.743,512.408,658.341,440.784z"/>
	<path id="XMLID_24_" style="fill:#725865;" d="M499.797,465.866c58.986,0,112.21-8.137,149.965-40.452
		c7.04-6.025,9.802-16.412,6.68-25.616c-0.017-0.05-0.034-0.101-0.051-0.151c-12.269-36.094-33.643-66.713-61.81-88.545
		c-28.053-21.743-60.817-33.236-94.815-33.236c-33.936,0-66.701,11.493-94.753,33.236c-28.167,21.833-49.541,52.451-61.81,88.545
		c-0.017,0.051-0.034,0.101-0.051,0.152c-3.122,9.204-0.359,19.59,6.68,25.615C387.587,457.729,440.811,465.866,499.797,465.866z"/>
	
		<path id="XMLID_115_" style="opacity:0.4;fill:#3E3442;stroke:#3E3442;stroke-width:6;stroke-linecap:round;stroke-linejoin:round;stroke-miterlimit:10;" d="
		M453.133,362.771l-5.996,6.738c-2.291,2.575-6.316,2.575-8.608,0l-5.995-6.738c-0.451-0.507-0.701-1.162-0.701-1.841v-82.331
		c0-1.53,1.24-2.77,2.77-2.77h16.461c1.53,0,2.77,1.24,2.77,2.77v82.331C453.833,361.608,453.584,362.264,453.133,362.771z"/>
	
		<path id="XMLID_205_" style="opacity:0.4;fill:#3E3442;stroke:#3E3442;stroke-width:6;stroke-linecap:round;stroke-linejoin:round;stroke-miterlimit:10;" d="
		M565.466,362.771l-5.996,6.738c-2.291,2.575-6.316,2.575-8.608,0l-5.995-6.738c-0.451-0.507-0.701-1.162-0.701-1.841v-82.331
		c0-1.53,1.24-2.77,2.77-2.77h16.461c1.53,0,2.77,1.24,2.77,2.77v82.331C566.167,361.608,565.917,362.264,565.466,362.771z"/>
	<path id="XMLID_249_" style="opacity:0.32;fill:#725865;" d="M649.763,416.435c-37.755,32.315-90.979,40.452-149.965,40.452
		c-58.986,0-112.211-8.137-149.966-40.453c-3.964-3.393-6.571-8.168-7.536-13.336c-1.548,8.295,1.327,17.001,7.536,22.315
		c37.755,32.316,90.979,40.453,149.966,40.453c58.986,0,112.21-8.137,149.965-40.452c6.209-5.314,9.084-14.02,7.536-22.315
		C656.334,408.267,653.726,413.042,649.763,416.435z"/>
	<path id="XMLID_33_" style="opacity:0.58;fill:#725865;" d="M656.443,399.798c-0.017-0.05-0.034-0.101-0.051-0.151
		c-12.269-36.094-33.643-66.713-61.81-88.545c-28.053-21.743-60.817-33.236-94.815-33.236c-33.936,0-66.701,11.493-94.753,33.236
		c-28.167,21.833-49.541,52.451-61.81,88.545c-0.017,0.051-0.034,0.101-0.051,0.152c-2.992,8.82-0.568,18.716,5.834,24.829
		c-3.205-5.647-4.017-12.727-1.817-19.212c0.017-0.049,0.033-0.099,0.05-0.148c11.955-35.169,32.78-65.001,60.225-86.274
		c27.333-21.185,59.258-32.383,92.323-32.383c33.126,0,65.051,11.198,92.384,32.383c27.445,21.273,48.271,51.106,60.224,86.275
		c0.017,0.049,0.033,0.098,0.05,0.147c2.2,6.485,1.388,13.565-1.817,19.213C657.011,418.515,659.435,408.619,656.443,399.798z"/>
	
		<path id="XMLID_19_" style="fill:none;stroke:#3E3442;stroke-width:10;stroke-linecap:round;stroke-linejoin:round;stroke-miterlimit:10;" d="
		M499.797,465.866c58.986,0,112.21-8.137,149.965-40.452c7.04-6.025,9.802-16.412,6.68-25.616c-0.017-0.05-0.034-0.101-0.051-0.151
		c-12.269-36.094-33.643-66.713-61.81-88.545c-28.053-21.743-60.817-33.236-94.815-33.236c-33.936,0-66.701,11.493-94.753,33.236
		c-28.167,21.833-49.541,52.451-61.81,88.545c-0.017,0.051-0.034,0.101-0.051,0.152c-3.122,9.204-0.359,19.59,6.68,25.615
		C387.587,457.729,440.811,465.866,499.797,465.866z"/>
	
		<path id="XMLID_28_" style="fill:none;stroke:#3E3442;stroke-width:3;stroke-linecap:round;stroke-linejoin:round;stroke-miterlimit:10;stroke-dasharray:5,7;" d="
		M499.798,453.866c-67.962,0-111.807-11.587-142.164-37.569c-3.38-2.894-4.663-8.093-3.119-12.644l0.049-0.143
		c11.511-33.862,31.498-62.536,57.8-82.923c25.93-20.097,56.153-30.72,87.402-30.72c31.289,0,61.534,10.623,87.464,30.721
		c26.304,20.388,46.291,49.062,57.8,82.922l0.047,0.139c1.545,4.556,0.263,9.755-3.118,12.649
		C611.604,442.28,567.76,453.866,499.798,453.866z"/>
	<g id="XMLID_36_">
		<path id="XMLID_8_" style="fill:#EDAB7A;" d="M510.097,634.068l-6.658,7.482c-1.939,2.179-5.345,2.179-7.284,0l-6.658-7.482
			c-0.451-0.507-0.701-1.162-0.701-1.841v-65.331c0-1.53,1.24-2.77,2.77-2.77h16.461c1.53,0,2.77,1.24,2.77,2.77v65.331
			C510.797,632.906,510.548,633.561,510.097,634.068z"/>
		
			<path id="XMLID_5_" style="fill:none;stroke:#3E3442;stroke-width:6;stroke-linecap:round;stroke-linejoin:round;stroke-miterlimit:10;" d="
			M510.097,634.068l-5.996,6.738c-2.291,2.575-6.316,2.575-8.608,0l-5.996-6.738c-0.451-0.507-0.701-1.162-0.701-1.841v-65.331
			c0-1.53,1.24-2.77,2.77-2.77h16.461c1.53,0,2.77,1.24,2.77,2.77v65.331C510.797,632.906,510.548,633.561,510.097,634.068z"/>
		
			<rect id="XMLID_20_" x="488.797" y="601.602" style="fill:none;stroke:#3E3442;stroke-width:6;stroke-linecap:round;stroke-linejoin:round;stroke-miterlimit:10;" width="22" height="13.5"/>
		
			<line id="XMLID_35_" style="fill:none;stroke:#3E3442;stroke-width:6;stroke-linecap:round;stroke-linejoin:round;stroke-miterlimit:10;" x1="499.797" y1="602.767" x2="499.797" y2="615.102"/>
		<circle id="XMLID_34_" style="fill:#3E3442;" cx="499.797" cy="577.602" r="3.375"/>
		<circle id="XMLID_40_" style="fill:#3E3442;" cx="499.797" cy="591.602" r="3.375"/>
		<circle id="XMLID_51_" style="fill:#3E3442;" cx="499.797" cy="624.977" r="3.375"/>
	</g>
	<g id="XMLID_108_">
		<g id="XMLID_45_">
			<path id="XMLID_120_" style="fill:#EDAB7A;" d="M453.133,353.771l-6.658,7.482c-1.939,2.179-5.345,2.179-7.284,0l-6.658-7.482
				c-0.451-0.507-0.701-1.162-0.701-1.841v-82.331c0-1.53,1.24-2.77,2.77-2.77h16.461c1.53,0,2.77,1.24,2.77,2.77v82.331
				C453.833,352.608,453.584,353.264,453.133,353.771z"/>
			
				<path id="XMLID_117_" style="fill:none;stroke:#3E3442;stroke-width:6;stroke-linecap:round;stroke-linejoin:round;stroke-miterlimit:10;" d="
				M453.133,353.771l-5.996,6.738c-2.291,2.575-6.316,2.575-8.608,0l-5.995-6.738c-0.451-0.507-0.701-1.162-0.701-1.841v-82.331
				c0-1.53,1.24-2.77,2.77-2.77h16.461c1.53,0,2.77,1.24,2.77,2.77v82.331C453.833,352.608,453.584,353.264,453.133,353.771z"/>
			<rect id="XMLID_54_" x="431.833" y="321.304" style="opacity:0.6;fill:#EDAB7A;" width="22" height="13.5"/>
			
				<rect id="XMLID_114_" x="431.833" y="321.304" style="fill:none;stroke:#3E3442;stroke-width:6;stroke-linecap:round;stroke-linejoin:round;stroke-miterlimit:10;" width="22" height="13.5"/>
			
				<line id="XMLID_113_" style="fill:none;stroke:#3E3442;stroke-width:6;stroke-linecap:round;stroke-linejoin:round;stroke-miterlimit:10;" x1="442.833" y1="322.469" x2="442.833" y2="334.804"/>
			<circle id="XMLID_110_" style="fill:#3E3442;" cx="442.833" cy="297.304" r="3.375"/>
			<circle id="XMLID_72_" style="fill:#3E3442;" cx="442.833" cy="311.304" r="3.375"/>
			<circle id="XMLID_52_" style="fill:#3E3442;" cx="442.833" cy="344.679" r="3.375"/>
		</g>
		<g id="XMLID_123_">
			<path id="XMLID_140_" style="fill:#EDAB7A;" d="M565.466,353.771l-6.658,7.482c-1.939,2.179-5.345,2.179-7.284,0l-6.658-7.482
				c-0.451-0.507-0.701-1.162-0.701-1.841v-82.331c0-1.53,1.24-2.77,2.77-2.77h16.461c1.53,0,2.77,1.24,2.77,2.77v82.331
				C566.167,352.608,565.917,353.264,565.466,353.771z"/>
			<rect id="XMLID_76_" x="544.167" y="321.304" style="opacity:0.6;fill:#EDAB7A;" width="22" height="13.5"/>
			
				<path id="XMLID_137_" style="fill:none;stroke:#3E3442;stroke-width:6;stroke-linecap:round;stroke-linejoin:round;stroke-miterlimit:10;" d="
				M565.466,353.771l-5.996,6.738c-2.291,2.575-6.316,2.575-8.608,0l-5.995-6.738c-0.451-0.507-0.701-1.162-0.701-1.841v-82.331
				c0-1.53,1.24-2.77,2.77-2.77h16.461c1.53,0,2.77,1.24,2.77,2.77v82.331C566.167,352.608,565.917,353.264,565.466,353.771z"/>
			<circle id="XMLID_210_" style="fill:#3E3442;" cx="442.833" cy="283.304" r="3.375"/>
			<circle id="XMLID_143_" style="fill:#3E3442;" cx="555.167" cy="283.304" r="3.375"/>
			<circle id="XMLID_232_" style="fill:#3E3442;" cx="442.833" cy="270.204" r="3.375"/>
			<circle id="XMLID_218_" style="fill:#3E3442;" cx="555.167" cy="270.204" r="3.375"/>
			<rect id="XMLID_74_" x="544.167" y="321.304" style="opacity:0.6;fill:#EDAB7A;" width="22" height="13.5"/>
			
				<rect id="XMLID_134_" x="544.167" y="321.304" style="fill:none;stroke:#3E3442;stroke-width:6;stroke-linecap:round;stroke-linejoin:round;stroke-miterlimit:10;" width="22" height="13.5"/>
			
				<line id="XMLID_133_" style="fill:none;stroke:#3E3442;stroke-width:6;stroke-linecap:round;stroke-linejoin:round;stroke-miterlimit:10;" x1="555.167" y1="322.469" x2="555.167" y2="334.804"/>
			<circle id="XMLID_130_" style="fill:#3E3442;" cx="555.167" cy="297.304" r="3.375"/>
			<circle id="XMLID_127_" style="fill:#3E3442;" cx="555.167" cy="311.304" r="3.375"/>
			<circle id="XMLID_124_" style="fill:#3E3442;" cx="555.167" cy="344.679" r="3.375"/>
		</g>
	</g>
	<path id="XMLID_39_" style="fill:#826776;" d="M520.017,439.366h-41.503c-4.003,0-7.248-3.245-7.248-7.248v-49.003
		c0-4.003,3.245-7.248,7.248-7.248h41.503c4.003,0,7.248,3.245,7.248,7.248v49.003C527.266,436.121,524.02,439.366,520.017,439.366z
		"/>
	<rect id="XMLID_202_" x="471.266" y="375.866" style="opacity:0.32;fill:#725865;" width="56" height="27.611"/>
	
		<path id="XMLID_43_" style="fill:none;stroke:#3E3442;stroke-width:6;stroke-linecap:round;stroke-linejoin:round;stroke-miterlimit:10;" d="
		M520.017,439.366h-41.503c-4.003,0-7.248-3.245-7.248-7.248v-49.003c0-4.003,3.245-7.248,7.248-7.248h41.503
		c4.003,0,7.248,3.245,7.248,7.248v49.003C527.266,436.121,524.02,439.366,520.017,439.366z"/>
	
		<path id="XMLID_196_" style="fill:none;stroke:#3E3442;stroke-width:2;stroke-linecap:round;stroke-linejoin:round;stroke-miterlimit:10;stroke-dasharray:3,5;" d="
		M478.514,433.366c-0.688,0-1.249-0.56-1.249-1.249v-49.003c0-0.688,0.56-1.249,1.249-1.249h41.503c0.688,0,1.248,0.56,1.248,1.249
		v49.003c0,0.688-0.56,1.249-1.248,1.249H478.514z"/>
	<rect id="XMLID_41_" x="466.266" y="354.866" style="fill:#F26161;" width="66" height="38.333"/>
	
		<rect id="XMLID_37_" x="466.266" y="354.866" style="fill:none;stroke:#3E3442;stroke-width:6;stroke-linecap:round;stroke-linejoin:round;stroke-miterlimit:10;" width="66" height="38.333"/>
	<path id="XMLID_166_" style="fill:#725865;" d="M542.148,534.56h-88.207c-4.521,0-8.185-3.665-8.185-8.185l0,0
		c0-4.521,3.665-8.185,8.185-8.185h88.207c4.521,0,8.185,3.665,8.185,8.185l0,0C550.333,530.896,546.669,534.56,542.148,534.56z"/>
	
		<path id="XMLID_119_" style="fill:none;stroke:#3E3442;stroke-width:4;stroke-linecap:round;stroke-linejoin:round;stroke-miterlimit:10;" d="
		M542.148,534.56h-88.207c-4.521,0-8.185-3.665-8.185-8.185l0,0c0-4.521,3.665-8.185,8.185-8.185h88.207
		c4.521,0,8.185,3.665,8.185,8.185l0,0C550.333,530.896,546.669,534.56,542.148,534.56z"/>
	
		<line id="XMLID_175_" style="fill:none;stroke:#3E3442;stroke-width:6;stroke-linejoin:round;stroke-miterlimit:10;" x1="507.5" y1="526.375" x2="537.126" y2="526.375"/>
	
		<line id="XMLID_174_" style="fill:none;stroke:#3E3442;stroke-width:6;stroke-linejoin:round;stroke-miterlimit:10;" x1="483.167" y1="526.375" x2="498.044" y2="526.375"/>
	
		<line id="XMLID_167_" style="fill:none;stroke:#3E3442;stroke-width:6;stroke-linejoin:round;stroke-miterlimit:10;" x1="458.963" y1="526.375" x2="475.333" y2="526.375"/>
	<rect id="XMLID_42_" x="488.531" y="350.116" style="fill:#D35050;" width="21.469" height="64.75"/>
	
		<rect id="XMLID_38_" x="488.531" y="350.116" style="fill:none;stroke:#3E3442;stroke-width:4;stroke-linecap:round;stroke-linejoin:round;stroke-miterlimit:10;" width="21.469" height="64.75"/>
	
		<circle id="XMLID_60_" style="fill:none;stroke:#3E3442;stroke-width:4;stroke-linecap:round;stroke-linejoin:round;stroke-miterlimit:10;" cx="499.797" cy="401.962" r="3.75"/>
	<circle id="XMLID_78_" style="fill:#826776;" cx="573.775" cy="404.914" r="14.714"/>
	
		<circle id="XMLID_70_" style="fill:none;stroke:#3E3442;stroke-width:2;stroke-linecap:round;stroke-linejoin:round;stroke-miterlimit:10;" cx="573.775" cy="404.914" r="14.714"/>
	<g id="XMLID_216_">
		<polygon id="XMLID_225_" style="fill:#8CA85E;" points="567.799,411.029 573.775,395.926 579.75,411.029 		"/>
		
			<polygon id="XMLID_223_" style="fill:none;stroke:#3E3442;stroke-width:2;stroke-linecap:round;stroke-linejoin:round;stroke-miterlimit:10;" points="
			567.799,411.029 573.775,395.926 579.75,411.029 		"/>
	</g>
</g>
<line id="XMLID_270_" style="fill:none;stroke:#3E3442;stroke-width:10;stroke-linecap:round;stroke-linejoin:round;stroke-miterlimit:10;" x1="748.667" y1="750.884" x2="774" y2="750.884"/>
<line id="XMLID_193_" style="fill:none;stroke:#3E3442;stroke-width:10;stroke-linecap:round;stroke-linejoin:round;stroke-miterlimit:10;" x1="794" y1="750.884" x2="804.25" y2="750.884"/>
<line id="XMLID_305_" style="fill:none;stroke:#3E3442;stroke-width:10;stroke-linecap:round;stroke-linejoin:round;stroke-miterlimit:10;" x1="322.269" y1="750.884" x2="712.22" y2="750.884"/>
<line id="XMLID_262_" style="fill:none;stroke:#3E3442;stroke-width:10;stroke-linecap:round;stroke-linejoin:round;stroke-miterlimit:10;" x1="240.655" y1="750.884" x2="297.333" y2="750.884"/>
</svg>
